<?xml version="1.0" encoding="UTF-8"?>
<svg version="1.1" xmlns="http://www.w3.org/2000/svg" width="1377" height="1375">
<path d="M0 0 C0.7785371 -0.00282738 1.5570742 -0.00565475 2.35920334 -0.00856781 C6.49972602 -0.02344731 10.64021503 -0.03274098 14.78076172 -0.03710938 C18.11160555 -0.0414414 21.44218262 -0.05514165 24.77294922 -0.078125 C54.90649522 -0.28154925 84.85060676 1.17496055 114.7109375 5.453125 C115.4482309 5.55605865 116.18552429 5.65899231 116.94515991 5.76504517 C173.7751094 13.73357541 229.05837582 28.5847501 282.2109375 50.203125 C283.1617218 50.5892395 283.1617218 50.5892395 284.13171387 50.9831543 C313.62404655 62.99989178 342.37256154 77.09091488 369.59814453 93.62548828 C372.13080073 95.15473743 374.6801224 96.65060764 377.23828125 98.13671875 C402.43741122 112.8524317 426.49076994 129.89617569 449.2109375 148.203125 C450.60505859 149.32267578 450.60505859 149.32267578 452.02734375 150.46484375 C462.16112848 158.68102729 472.0851975 167.17133539 481.72949219 175.95727539 C483.22252251 177.30855303 484.72374166 178.65097274 486.24047852 179.97558594 C494.34688383 187.0978709 501.91763812 194.75883647 509.53442383 202.39624023 C511.9000794 204.76727063 514.27105264 207.13288922 516.64257812 209.49804688 C518.16959167 211.02572104 519.69629507 212.55370528 521.22265625 214.08203125 C521.92073898 214.77808975 522.61882172 215.47414825 523.33805847 216.19129944 C527.82777521 220.70220478 532.06816732 225.37303902 536.2109375 230.203125 C537.28023414 231.42927207 538.35040723 232.65465596 539.421875 233.87890625 C573.72990204 273.26129507 603.49966998 316.17573679 628.2109375 362.203125 C628.8920459 363.46479492 628.8920459 363.46479492 629.58691406 364.75195312 C673.45008766 446.30957813 698.55987895 535.7513869 709.3984375 686.890625 C709.39817062 687.56873985 709.39790375 688.24685471 709.39762878 688.94551849 C709.38767289 709.09720632 709.22533817 729.13116016 707.2109375 749.203125 C707.08734863 750.51474609 706.96375977 751.82636719 706.83642578 753.17773438 C702.15422496 802.43652734 692.23886959 851.0649167 677.2109375 898.203125 C676.9984436 898.86983215 676.78594971 899.53653931 676.5670166 900.22344971 C659.94183971 952.13577721 636.66909673 1001.75417546 608.2109375 1048.203125 C607.41308838 1049.51265137 607.41308838 1049.51265137 606.59912109 1050.84863281 C591.5199939 1075.51465225 574.32331091 1098.69696087 556.2109375 1121.203125 C555.40785156 1122.2034375 554.60476563 1123.20375 553.77734375 1124.234375 C549.43518402 1129.58378036 544.96584636 1134.77601924 540.328125 1139.87109375 C538.43042581 1141.96136389 536.56360335 1144.07298615 534.7109375 1146.203125 C533.54439456 1147.53656659 532.37771199 1148.86988602 531.2109375 1150.203125 C530.65220947 1150.84870361 530.09348145 1151.49428223 529.51782227 1152.15942383 C522.36054651 1160.28284571 514.68082125 1167.88429949 507.01782227 1175.52661133 C504.64679187 1177.8922669 502.28117328 1180.26324014 499.91601562 1182.63476562 C498.38834146 1184.16177917 496.86035722 1185.68848257 495.33203125 1187.21484375 C494.2879435 1188.26196785 494.2879435 1188.26196785 493.22276306 1189.33024597 C488.71184756 1193.81997282 484.04035886 1198.05958023 479.2109375 1202.203125 C478.05495021 1203.213656 476.89984126 1204.22519379 475.74609375 1205.23828125 C461.98448295 1217.25582294 447.98572794 1228.90646466 433.24560547 1239.70996094 C431.19800101 1241.21261859 429.15959365 1242.72721034 427.12109375 1244.2421875 C407.9539044 1258.38471022 387.82546285 1271.27945634 367.2109375 1283.203125 C366.29650879 1283.73437988 365.38208008 1284.26563477 364.43994141 1284.81298828 C328.92468861 1305.35113633 291.93973776 1322.6414178 253.2109375 1336.203125 C252.59321472 1336.42077515 251.97549194 1336.63842529 251.33905029 1336.8626709 C194.05251814 1357.0394036 134.76413052 1369.45363555 74.2109375 1374.203125 C72.54825081 1374.33411842 72.54825081 1374.33411842 70.85197449 1374.46775818 C61.3623832 1375.15970197 51.93277612 1375.3822567 42.421875 1375.40625 C41.6433379 1375.40907738 40.8648008 1375.41190475 40.06267166 1375.41481781 C35.92214898 1375.42969731 31.78165997 1375.43899098 27.64111328 1375.44335938 C24.31026945 1375.4476914 20.97969238 1375.46139165 17.64892578 1375.484375 C-12.50751421 1375.68795372 -42.46671551 1374.21528257 -72.3515625 1369.953125 C-73.08581451 1369.85152069 -73.82006653 1369.74991638 -74.5765686 1369.64523315 C-92.11546087 1367.20749409 -109.46834792 1363.86157802 -126.7890625 1360.203125 C-127.97532227 1359.95449707 -129.16158203 1359.70586914 -130.38378906 1359.44970703 C-217.12781373 1341.03145522 -300.08974252 1303.13063712 -426.7890625 1210.203125 C-427.54960937 1209.54441406 -428.31015625 1208.88570312 -429.09375 1208.20703125 C-434.38550052 1203.60597106 -439.5904265 1198.90882189 -444.7890625 1194.203125 C-445.67005615 1193.40898193 -446.5510498 1192.61483887 -447.45874023 1191.79663086 C-454.63442957 1185.2816727 -461.57824828 1178.57024572 -468.41821289 1171.7043457 C-470.11425976 1170.00288722 -471.81566071 1168.30691237 -473.51757812 1166.61132812 C-479.15705988 1160.97528233 -484.61414823 1155.27368035 -489.7890625 1149.203125 C-491.40874067 1147.42742279 -493.03317968 1145.65604193 -494.6640625 1143.890625 C-498.68286843 1139.47959327 -502.51771574 1134.96577142 -506.26171875 1130.3203125 C-508.13954166 1127.99074558 -510.04930367 1125.69055103 -511.97265625 1123.3984375 C-520.69431669 1112.9781534 -528.87330407 1102.24631477 -536.7890625 1091.203125 C-537.3665625 1090.40003906 -537.9440625 1089.59695313 -538.5390625 1088.76953125 C-547.77543784 1075.88396298 -556.4280478 1062.67140038 -564.7890625 1049.203125 C-565.41240479 1048.20152344 -565.41240479 1048.20152344 -566.04833984 1047.1796875 C-568.70163656 1042.89580263 -571.26544712 1038.56451574 -573.7890625 1034.203125 C-574.52213623 1032.94000488 -574.52213623 1032.94000488 -575.27001953 1031.65136719 C-615.60050759 961.80690372 -643.60452416 885.21863357 -664.7890625 745.203125 C-664.89202637 743.91212891 -664.99499023 742.62113281 -665.10107422 741.29101562 C-671.11694987 663.33573577 -663.83776763 584.56248002 -598.7890625 388.203125 C-598.24137207 387.06391602 -597.69368164 385.92470703 -597.12939453 384.75097656 C-589.55267013 369.0787221 -581.41264041 353.87412848 -572.43994141 338.95800781 C-570.86440849 336.32885764 -569.31322868 333.68699951 -567.76953125 331.0390625 C-545.00666133 292.1937714 -516.93825784 255.8466473 -486.31665039 222.87426758 C-485.17647219 221.62694142 -484.05025217 220.36682939 -482.93139648 219.1003418 C-476.86501648 212.25120309 -470.49240353 205.7529543 -464.01391602 199.29760742 C-462.222303 197.5113783 -460.43613195 195.71983153 -458.65039062 193.92773438 C-453.38869982 188.66298617 -448.12952613 183.45872106 -442.4597168 178.62866211 C-439.89267605 176.43825572 -437.44578696 174.12812988 -434.9765625 171.828125 C-429.43248263 166.7125308 -423.6688526 161.92971756 -417.7890625 157.203125 C-416.56016231 156.19527184 -415.33236457 155.18607345 -414.10546875 154.17578125 C-348.69050935 100.41460653 -273.17001377 59.56379818 -192.7890625 33.203125 C-191.02079102 32.62135498 -191.02079102 32.62135498 -189.21679688 32.02783203 C-128.68221471 12.27208785 -63.78354309 0.16090773 0 0 Z M-215.7890625 365.203125 C-216.6346875 365.821875 -217.4803125 366.440625 -218.3515625 367.078125 C-220.45343241 368.91052441 -222.14982335 370.71185928 -223.95703125 372.8203125 C-227.706365 377.14080143 -231.60147172 381.30455761 -235.5390625 385.453125 C-241.12622921 391.36425996 -246.66911681 397.30862546 -252.15234375 403.31640625 C-255.00006856 406.43413756 -257.86120961 409.53910652 -260.7265625 412.640625 C-261.22575195 413.18106445 -261.72494141 413.72150391 -262.23925781 414.27832031 C-263.25042803 415.37293978 -264.26165867 416.46750343 -265.27294922 417.56201172 C-267.77920354 420.27490086 -270.28406696 422.98907359 -272.7890625 425.703125 C-273.78905574 426.78646457 -274.78905574 427.86979791 -275.7890625 428.953125 C-276.2840625 429.489375 -276.7790625 430.025625 -277.2890625 430.578125 C-286.7890625 440.86979167 -296.2890625 451.16145833 -305.7890625 461.453125 C-306.28390137 461.98921387 -306.77874023 462.52530273 -307.28857422 463.07763672 C-308.29014776 464.16264756 -309.2917755 465.24760838 -310.29345703 466.33251953 C-312.76982522 469.01478257 -315.24529314 471.69786434 -317.71875 474.3828125 C-323.07618663 480.19612541 -328.45258124 485.99085821 -333.8515625 491.765625 C-338.96017124 497.23058356 -344.03406975 502.72511683 -349.08203125 508.24609375 C-353.46114462 513.03449994 -357.86939573 517.79609575 -362.27294922 522.56201172 C-364.77920354 525.27490086 -367.28406696 527.98907359 -369.7890625 530.703125 C-370.78905574 531.78646457 -371.78905574 532.86979791 -372.7890625 533.953125 C-373.5315625 534.7575 -373.5315625 534.7575 -374.2890625 535.578125 C-383.7890625 545.86979167 -393.2890625 556.16145833 -402.7890625 566.453125 C-403.28390137 566.98921387 -403.77874023 567.52530273 -404.28857422 568.07763672 C-405.29014776 569.16264756 -406.2917755 570.24760838 -407.29345703 571.33251953 C-409.76982522 574.01478257 -412.24529314 576.69786434 -414.71875 579.3828125 C-420.07618663 585.19612541 -425.45258124 590.99085821 -430.8515625 596.765625 C-435.96017124 602.23058356 -441.03406975 607.72511683 -446.08203125 613.24609375 C-450.46114462 618.03449994 -454.86939573 622.79609575 -459.27294922 627.56201172 C-461.77920354 630.27490086 -464.28406696 632.98907359 -466.7890625 635.703125 C-467.78905574 636.78646457 -468.78905574 637.86979791 -469.7890625 638.953125 C-470.5315625 639.7575 -470.5315625 639.7575 -471.2890625 640.578125 C-499.7890625 671.453125 -499.7890625 671.453125 -501.29101562 673.07885742 C-502.28634765 674.15805299 -503.27985265 675.23893658 -504.27148438 676.3215332 C-506.83018967 679.11013531 -509.41809297 681.8585653 -512.0703125 684.55859375 C-521.55189112 694.10555941 -521.55189112 694.10555941 -524.80859375 706.76171875 C-523.93509645 713.51333905 -520.63741338 717.63672697 -515.7890625 722.203125 C-512.65686218 724.46897204 -509.35887159 726.33727707 -505.9765625 728.203125 C-504.02579225 729.31499063 -502.07664416 730.42970591 -500.12890625 731.546875 C-499.10394043 732.13210938 -498.07897461 732.71734375 -497.02294922 733.3203125 C-493.62076819 735.30110822 -490.26232264 737.34562592 -486.91796875 739.421875 C-486.05687752 739.95627197 -486.05687752 739.95627197 -485.1783905 740.50146484 C-482.38135209 742.24032625 -479.58841622 743.9855214 -476.79760742 745.734375 C-463.79350353 754.5988307 -463.79350353 754.5988307 -448.7890625 756.203125 C-433.42839934 752.23351542 -421.39898206 737.90715163 -411.36328125 726.265625 C-407.0800058 721.31802181 -402.41899036 716.7826711 -397.75 712.203125 C-394.48240948 708.97338302 -391.31753917 705.71800875 -388.3203125 702.234375 C-383.86345645 697.05997523 -378.9745986 692.34061931 -374.10546875 687.55859375 C-370.70987689 684.19984376 -367.40488481 680.82460076 -364.2890625 677.203125 C-359.84470998 672.03751756 -354.96399162 667.33020207 -350.10546875 662.55859375 C-346.0708376 658.56773798 -342.24934512 654.48660491 -338.54882812 650.18554688 C-334.82514341 645.99071893 -330.75250711 642.12895573 -326.75 638.203125 C-323.48240948 634.97338302 -320.31753917 631.71800875 -317.3203125 628.234375 C-312.86345645 623.05997523 -307.9745986 618.34061931 -303.10546875 613.55859375 C-299.0708376 609.56773798 -295.24934512 605.48660491 -291.54882812 601.18554688 C-287.82514341 596.99071893 -283.75250711 593.12895573 -279.75 589.203125 C-276.48240948 585.97338302 -273.31753917 582.71800875 -270.3203125 579.234375 C-265.86345645 574.05997523 -260.9745986 569.34061931 -256.10546875 564.55859375 C-252.70987689 561.19984376 -249.40488481 557.82460076 -246.2890625 554.203125 C-241.84470998 549.03751756 -236.96399162 544.33020207 -232.10546875 539.55859375 C-228.0708376 535.56773798 -224.24934512 531.48660491 -220.54882812 527.18554688 C-216.82514341 522.99071893 -212.75250711 519.12895573 -208.75 515.203125 C-205.48240948 511.97338302 -202.31753917 508.71800875 -199.3203125 505.234375 C-194.86345645 500.05997523 -189.9745986 495.34061931 -185.10546875 490.55859375 C-181.11101649 486.60748094 -177.32268642 482.57047706 -173.65625 478.31494141 C-169.93754224 474.10902847 -165.98515084 470.13182868 -162.0390625 466.140625 C-161.20890625 465.28146484 -160.37875 464.42230469 -159.5234375 463.53710938 C-147.62814376 451.52249556 -136.39867287 445.91524911 -119.40005076 445.79723269 C-117.44784823 445.80624776 -117.44784823 445.80624776 -115.45620728 445.81544495 C-114.03291829 445.81126445 -112.60963264 445.80578303 -111.18635309 445.79912513 C-107.30269358 445.78474552 -103.41924764 445.78889163 -99.53557682 445.79629195 C-95.33641666 445.80103997 -91.13730162 445.78849936 -86.93815613 445.77827454 C-78.72228508 445.76111309 -70.50649059 445.76024101 -62.29060628 445.76548744 C-55.61000339 445.76953535 -48.92942307 445.76807821 -42.24882126 445.76273918 C-40.8204375 445.76161655 -40.8204375 445.76161655 -39.3631975 445.76047124 C-37.42844387 445.7589397 -35.49369025 445.75740135 -33.55893664 445.75585627 C-15.43129942 445.74214081 2.69629459 445.74756219 20.82393081 445.75904148 C37.39143269 445.76897267 53.95882286 445.75603346 70.52630751 445.73210729 C87.55714703 445.70769815 104.58793457 445.69811289 121.61879122 445.70476002 C131.17258428 445.70824822 140.72629146 445.70604651 150.28007126 445.68850899 C158.41297814 445.6737643 166.54573866 445.67318114 174.67864273 445.6905799 C178.82411683 445.69907367 182.96932971 445.70127943 187.11478996 445.68592834 C190.91720398 445.67202247 194.71913446 445.67691921 198.52152093 445.69616758 C200.53250114 445.70166893 202.54350635 445.68770547 204.55443895 445.67281348 C223.285555 445.82338839 234.91348343 453.49073575 247.64526367 466.41259766 C251.08734811 469.9669521 254.40255678 473.6065877 257.60546875 477.37890625 C260.01875216 480.12100686 262.6404084 482.64137328 265.2421875 485.203125 C267.76519209 487.76617728 270.08656567 490.47658324 272.4296875 493.203125 C274.2851896 495.28649578 276.22316851 497.24593707 278.2109375 499.203125 C281.46123733 502.40342022 284.45817995 505.74537076 287.4296875 509.203125 C289.2851896 511.28649578 291.22316851 513.24593707 293.2109375 515.203125 C296.46123733 518.40342022 299.45817995 521.74537076 302.4296875 525.203125 C304.2851896 527.28649578 306.22316851 529.24593707 308.2109375 531.203125 C311.46123733 534.40342022 314.45817995 537.74537076 317.4296875 541.203125 C319.2851896 543.28649578 321.22316851 545.24593707 323.2109375 547.203125 C326.46123733 550.40342022 329.45817995 553.74537076 332.4296875 557.203125 C334.2851896 559.28649578 336.22316851 561.24593707 338.2109375 563.203125 C353.98137036 578.75961788 353.98137036 578.75961788 354.4609375 585.953125 C354.37892987 590.06096192 353.66324533 592.80153672 351.2109375 596.203125 C345.64767854 599.2194274 341.08338452 599.62766414 334.83038998 599.56388855 C333.43672297 599.56773266 333.43672297 599.56773266 332.01490107 599.57165444 C328.89614583 599.57659429 325.77787528 599.56007087 322.65916443 599.54370117 C320.40271025 599.54286121 318.14625525 599.5433499 315.88980156 599.54505444 C309.68451262 599.54594207 303.47939548 599.52812218 297.27414644 599.50734472 C291.27045604 599.49020249 285.26677005 599.48720683 279.26306023 599.48399368 C266.97913536 599.47699039 254.69526882 599.45644029 242.41137505 599.42861938 C225.62896956 599.39079306 208.84658357 599.37267861 192.06414247 599.35981929 C184.24323385 599.35380034 176.42232608 599.34681782 168.6014185 599.33958435 C167.42698663 599.33849979 167.42698663 599.33849979 166.22882886 599.33739332 C147.59289106 599.31995957 128.95696872 599.29309145 110.32104492 599.26464844 C109.09800047 599.26278703 109.09800047 599.26278703 107.85024806 599.26088803 C94.62181187 599.24074208 81.39337659 599.22002451 68.16494143 599.19921899 C55.78110394 599.17974579 43.39726616 599.16047371 31.01342773 599.14160156 C30.19956866 599.14035779 29.38570959 599.13911403 28.54718813 599.13783257 C9.95746571 599.10947432 -8.63225509 599.08382876 -27.22199154 599.06666565 C-28.00388066 599.06594267 -28.78576978 599.06521969 -29.59135252 599.0644748 C-37.39866117 599.05731756 -45.20597007 599.05063386 -53.01327972 599.04465606 C-69.77281058 599.03171942 -86.5322729 599.01052851 -103.29176681 598.97251251 C-115.51373602 598.9449158 -127.73568217 598.92768248 -139.95768119 598.92116046 C-146.57604715 598.91729785 -153.19433046 598.90812158 -159.81266785 598.88588333 C-165.87576267 598.86558812 -171.93870891 598.85923811 -178.0018345 598.86379015 C-180.19096645 598.86297815 -182.38010388 598.85709146 -184.56920535 598.84551179 C-206.68531868 598.73399028 -221.37709148 601.38403306 -237.7890625 617.203125 C-238.50191406 617.88761719 -239.21476562 618.57210938 -239.94921875 619.27734375 C-243.83903891 623.09221554 -247.45819013 627.07265534 -251.0078125 631.203125 C-253.49285887 633.9933525 -256.15881288 636.58257153 -258.8203125 639.203125 C-260.72892705 641.14203502 -262.51616802 643.14012051 -264.2890625 645.203125 C-266.68582838 647.99208893 -269.16865641 650.62303285 -271.7890625 653.203125 C-274.38888433 655.76302634 -276.85174648 658.3709204 -279.2265625 661.140625 C-282.50036903 664.95136563 -286.02270221 668.45390665 -289.59765625 671.98046875 C-292.21007318 674.6301394 -294.62208871 677.41485303 -297.04296875 680.23828125 C-299.51387639 683.01874332 -302.1707319 685.59430718 -304.8203125 688.203125 C-306.72892705 690.14203502 -308.51616802 692.14012051 -310.2890625 694.203125 C-313.30668603 697.71454148 -316.52265331 700.95619902 -319.8203125 704.203125 C-321.72892705 706.14203502 -323.51616802 708.14012051 -325.2890625 710.203125 C-327.68582838 712.99208893 -330.16865641 715.62303285 -332.7890625 718.203125 C-335.38888433 720.76302634 -337.85174648 723.3709204 -340.2265625 726.140625 C-343.50036903 729.95136563 -347.02270221 733.45390665 -350.59765625 736.98046875 C-353.21007318 739.6301394 -355.62208871 742.41485303 -358.04296875 745.23828125 C-360.51387639 748.01874332 -363.1707319 750.59430718 -365.8203125 753.203125 C-368.34282012 755.76567242 -370.66429708 758.4744692 -373.00390625 761.203125 C-374.87348159 763.29770393 -376.83812417 765.24699516 -378.8515625 767.203125 C-387.30745664 775.45931073 -387.30745664 775.45931073 -390.8515625 786.26171875 C-390.54078279 792.02085517 -388.88583389 796.03227974 -384.7890625 800.203125 C-380.79893216 803.1248432 -376.56104118 805.59738049 -372.2890625 808.078125 C-371.0376573 808.81969236 -369.78702047 809.56255771 -368.53710938 810.30664062 C-365.27709064 812.24198584 -362.0066344 814.1588368 -358.73193359 816.06921387 C-356.24457913 817.52089994 -353.76068386 818.97844348 -351.2767334 820.4359436 C-347.07066174 822.90384125 -342.8630525 825.36904993 -338.65039062 827.82568359 C-330.30754647 832.69532353 -322.03318589 837.66841209 -313.7890625 842.703125 C-304.17837475 848.57193829 -294.51357178 854.33733708 -284.7890625 860.015625 C-284.17366608 860.37497131 -283.55826965 860.73431763 -282.92422485 861.10455322 C-282.31412567 861.46079773 -281.70402649 861.81704224 -281.07543945 862.18408203 C-273.58196942 866.56032431 -266.11697257 870.97975064 -258.68481445 875.45947266 C-249.30629908 881.10779894 -239.8853024 886.68456633 -230.4675293 892.26708984 C-224.0716737 896.05944897 -217.68204074 899.86148534 -211.30859375 903.69140625 C-203.48644474 908.39187635 -195.63919248 913.04958009 -187.7890625 917.703125 C-179.30872725 922.73025462 -170.83593649 927.76896292 -162.38583374 932.84677124 C-156.07604036 936.63611947 -149.74558345 940.39034244 -143.41381836 944.14282227 C-133.02230162 950.30212073 -122.64146431 956.47822928 -112.2890625 962.703125 C-102.95229116 968.31597298 -93.59525016 973.89378601 -84.2265625 979.453125 C-83.55648163 979.8507605 -82.88640076 980.248396 -82.1960144 980.65808105 C-77.39419155 983.5072629 -72.59169959 986.35531593 -67.7890625 989.203125 C-62.30944335 992.45236262 -56.83010844 995.70207809 -51.3515625 998.953125 C-50.68091766 999.35108276 -50.01027283 999.74904053 -49.31930542 1000.15905762 C-40.62852826 1005.31721728 -31.95113707 1010.49685653 -23.2890625 1015.703125 C-20.26075519 1017.52091006 -17.23207862 1019.33807723 -14.203125 1021.15478516 C-11.71816869 1022.64568786 -9.23385988 1024.13764436 -6.75 1025.63037109 C-3.14531406 1027.79585425 0.46287323 1029.95541404 4.07299805 1032.11181641 C5.47919766 1032.95293477 6.88434076 1033.7958224 8.28833008 1034.640625 C23.29736283 1044.02707362 23.29736283 1044.02707362 40.3359375 1047.453125 C41.91761719 1047.49179688 41.91761719 1047.49179688 43.53125 1047.53125 C52.23958433 1046.75471063 59.35100311 1043.37529498 66.7734375 1038.953125 C67.67126953 1038.42936279 68.56910156 1037.90560059 69.49414062 1037.3659668 C72.40833223 1035.65910457 75.31116829 1033.93436624 78.2109375 1032.203125 C79.18015137 1031.62449707 80.14936523 1031.04586914 81.14794922 1030.44970703 C85.22145736 1028.01284632 89.29125333 1025.56993367 93.35668945 1023.11962891 C101.35870083 1018.29884715 109.39813984 1013.54618176 117.4609375 1008.828125 C118.0640979 1008.47507294 118.6672583 1008.12202087 119.28869629 1007.75827026 C124.21276419 1004.87649879 129.13880281 1001.99810283 134.06494141 999.11987305 C138.36452894 996.60753171 142.66334136 994.09387144 146.9609375 991.578125 C147.56514526 991.22445862 148.16935303 990.87079224 148.79187012 990.50640869 C158.15080868 985.0253709 167.4617959 979.46755934 176.75219727 973.87109375 C187.7985811 967.227286 198.92917941 960.72895807 210.05625916 954.22167969 C218.24542953 949.43060074 226.40906812 944.59634756 234.57373047 939.76367188 C239.11812849 937.07455947 243.66466476 934.3890663 248.2109375 931.703125 C250.04428055 930.61980811 251.87761389 929.53647479 253.7109375 928.453125 C286.7109375 908.953125 319.7109375 889.453125 352.7109375 869.953125 C353.61787354 869.41719727 354.52480957 868.88126953 355.45922852 868.32910156 C357.29821961 867.24244726 359.13724975 866.15585904 360.97631836 865.06933594 C365.47340565 862.41234562 369.96987746 859.75432717 374.46484375 857.09375 C382.35566105 852.42479143 390.2494649 847.76138451 398.1640625 843.1328125 C409.71340554 836.37777272 421.24982424 829.6074101 432.7109375 822.703125 C441.73745299 817.26546507 450.80318895 811.89963879 459.8984375 806.578125 C460.50894958 806.22083313 461.11946167 805.86354126 461.74847412 805.49542236 C464.16766238 804.07969445 466.58696516 802.66416248 469.00640869 801.24887085 C477.36148227 796.36101287 485.71180441 791.46568263 494.02441406 786.50585938 C495.38350836 785.69610869 496.74450005 784.88952313 498.10839844 784.08789062 C505.43496867 779.77415523 511.29236941 775.79100522 514.6484375 767.765625 C515.65365644 761.39923841 514.90750392 756.29903476 511.4453125 750.8046875 C508.19960173 746.59348048 504.27519674 743.8471064 499.2109375 742.203125 C496.14887612 741.90300705 496.14887612 741.90300705 492.80673218 741.94585609 C491.50548747 741.9394072 490.20424276 741.93295831 488.8635664 741.926314 C487.42125091 741.92925624 485.9789358 741.93239167 484.53662109 741.93569946 C483.00301801 741.93196304 481.46941683 741.92736156 479.93581867 741.92196882 C475.71940456 741.90972165 471.50306969 741.91000132 467.28664184 741.91235757 C462.73973219 741.91276532 458.19284809 741.90173036 453.64595032 741.89224243 C444.73544386 741.87562044 435.82496386 741.87013228 426.91444319 741.86901768 C419.66924614 741.86806747 412.42405782 741.86395852 405.17886353 741.85761642 C384.63335536 741.83999827 364.08786809 741.83077808 343.54235232 741.83227737 C342.43444539 741.83235728 341.32653846 741.8324372 340.18505859 741.83251953 C338.52116594 741.83264217 338.52116594 741.83264217 336.8236593 741.83276729 C318.85901316 741.83357965 300.89445098 741.81445625 282.92982912 741.7862428 C264.47988961 741.75749618 246.02999101 741.74370359 227.58002853 741.74543035 C217.22354337 741.74609379 206.86714613 741.74062203 196.51068115 741.71907425 C187.68960085 741.70083874 178.86864831 741.69653433 170.04755729 741.7100931 C165.54973076 741.71661168 161.05214914 741.71678035 156.55434608 741.6993866 C152.42974 741.68360078 148.30557191 741.68657529 144.18097615 741.70395486 C142.695707 741.70701277 141.21040471 741.70343834 139.72517467 741.69223471 C122.99504321 741.57447988 110.95662207 745.8659321 98.7109375 757.328125 C95.04814807 761.16491868 91.85539109 765.39441291 88.6159668 769.58740234 C85.20711417 773.98767888 81.66791264 778.24645176 78.0234375 782.453125 C65.47315471 795.37851961 65.47315471 795.37851961 60.86328125 811.76953125 C61.59801854 816.91269229 64.26610546 819.4896804 68.2734375 822.515625 C72.03589309 824.67703566 74.68379524 825.32810018 78.94618225 825.33442688 C79.92031067 825.33843506 80.89443909 825.34244324 81.89808655 825.34657288 C83.49939674 825.3457798 83.49939674 825.3457798 85.13305664 825.3449707 C86.25859955 825.34844513 87.38414246 825.35191956 88.54379272 825.35549927 C90.99265612 825.36286009 93.4415262 825.36820373 95.89039803 825.37178993 C99.77060993 825.3789515 103.6506951 825.39461728 107.53086853 825.41313171 C118.56507508 825.46560613 129.59921557 825.51398333 140.63354492 825.52905273 C147.38041641 825.53836141 154.12692582 825.56853102 160.87368584 825.61037254 C163.44156939 825.62266267 166.00949775 825.62780745 168.57740974 825.62557411 C172.17963378 825.62321283 175.78095491 825.64545369 179.38305664 825.6730957 C180.43642715 825.66649429 181.48979767 825.65989288 182.5750885 825.65309143 C189.30981521 825.73757578 195.35639173 826.66713336 201.2109375 830.203125 C203.98381347 833.34135556 204.66345758 835.31958707 204.7109375 839.515625 C204.741875 840.41925781 204.7728125 841.32289063 204.8046875 842.25390625 C203.71768511 847.65316153 200.53962861 851.11254406 196.35546875 854.546875 C195.25589844 855.2584375 194.15632812 855.97 193.0234375 856.703125 C192.38817139 857.1148999 191.75290527 857.5266748 191.09838867 857.95092773 C183.7731397 862.61847075 176.20046506 866.88160971 168.65869141 871.18603516 C160.49041809 875.85511062 152.42415586 880.66857059 144.3984375 885.578125 C134.62293257 891.55440799 124.79244188 897.425029 114.8984375 903.203125 C114.27691803 903.56612701 113.65539856 903.92912903 113.01504517 904.3031311 C111.79105762 905.01792985 110.56706384 905.73271792 109.34306335 906.44749451 C104.07296481 909.52513968 98.81387981 912.61691003 93.5859375 915.765625 C91.95591797 916.74595703 91.95591797 916.74595703 90.29296875 917.74609375 C87.89651696 919.18779404 85.50128064 920.63146437 83.10693359 922.07666016 C80.11045062 923.88408831 77.10929975 925.6836003 74.10601807 927.47970581 C72.90010999 928.20250763 71.69559899 928.9276463 70.49261475 929.65530396 C57.48833966 937.51802044 46.26077091 942.26223739 30.8984375 939.453125 C20.86374615 936.68054868 12.03429407 930.55474366 3.2109375 925.203125 C2.14746094 924.55972168 1.08398438 923.91631836 -0.01171875 923.25341797 C-4.63213435 920.45482413 -9.24953828 917.65143769 -13.859375 914.83544922 C-22.2810777 909.69515518 -30.76459374 904.67084797 -39.2890625 899.703125 C-48.78296036 894.16820876 -58.22047092 888.55219778 -67.6015625 882.828125 C-77.68593934 876.67517006 -87.81256697 870.59869434 -97.9765625 864.578125 C-98.65465973 864.17644104 -99.33275696 863.77475708 -100.03140259 863.36090088 C-100.70657928 862.9609491 -101.38175598 862.56099731 -102.07739258 862.14892578 C-103.42271243 861.35192791 -104.76800889 860.55489054 -106.11328125 859.7578125 C-106.77010391 859.36864655 -107.42692657 858.97948059 -108.10365295 858.57852173 C-115.18158174 854.38206704 -122.23342181 850.14245901 -129.28466797 845.90136719 C-137.02147479 841.25258885 -144.78205415 836.64493401 -152.54782104 832.0447998 C-164.62865571 824.88788766 -176.67015917 817.67151912 -188.65844727 810.3605957 C-194.35914504 806.88602144 -200.06948613 803.43017175 -205.80859375 800.01953125 C-206.94047119 799.34567383 -208.07234863 798.67181641 -209.23852539 797.97753906 C-211.36432824 796.71391367 -213.49226205 795.45386287 -215.62280273 794.19824219 C-233.60581315 783.50015973 -233.60581315 783.50015973 -236.37109375 774.2578125 C-237.71833654 767.63491806 -237.22740805 761.08158675 -233.7890625 755.203125 C-231.45068322 752.20273881 -228.88741777 749.45861914 -226.24755859 746.72216797 C-224.01009761 744.39182277 -221.81365266 742.02362469 -219.61181641 739.65966797 C-218.3929275 738.35131334 -217.17253927 737.04435396 -215.95068359 735.73876953 C-211.91695395 731.42805494 -207.94116201 727.07104345 -204.00390625 722.671875 C-199.64144845 717.80931181 -195.22870454 712.99522717 -190.7890625 708.203125 C-190.16128906 707.50832031 -189.53351563 706.81351563 -188.88671875 706.09765625 C-178.94267695 695.49847758 -166.29442029 691.59146361 -152.06174804 691.11107036 C-148.94052945 691.07575881 -145.82073213 691.07149745 -142.69931889 691.07842636 C-141.5016268 691.07708213 -140.30393472 691.07573789 -139.06994894 691.07435292 C-135.75279202 691.07161866 -132.43569182 691.07333703 -129.11853935 691.07692641 C-125.50691212 691.07971063 -121.89528913 691.07663479 -118.28366226 691.07427907 C-111.95614891 691.07093055 -105.62864387 691.07120064 -99.30113029 691.07383537 C-89.89183806 691.07770389 -80.48255337 691.07576614 -71.07326123 691.07242121 C-56.21287835 691.06719767 -41.35249727 691.06513366 -26.49211355 691.06505634 C-2.9051779 691.0648052 20.68174221 691.05312473 44.26867217 691.03744576 C49.28911882 691.03412138 54.30956555 691.03089956 59.33001226 691.0276649 C65.42468909 691.02372879 71.51936591 691.01978221 77.61404271 691.01580368 C100.59238513 691.00083353 123.57072816 690.98721389 146.54907227 690.97509766 C147.5990828 690.9745395 148.64909333 690.97398133 149.73092236 690.97340626 C183.79465563 690.95539949 217.85837621 690.95108303 251.92211361 690.95279668 C286.94495067 690.95446535 321.96774578 690.93957578 356.99056646 690.90487184 C361.93514312 690.89998629 366.87971996 690.89530459 371.82429695 690.8907547 C372.79742531 690.88985516 373.77055366 690.88895563 374.77317076 690.88802884 C390.44119599 690.87406195 406.10916946 690.87781573 421.77719531 690.88836662 C437.51858149 690.89863163 453.25987657 690.89099405 469.00124531 690.8649489 C478.3552072 690.85003427 487.70892919 690.84910363 497.06288498 690.86808759 C503.31043531 690.87940227 509.55779671 690.87262564 515.8053199 690.85114035 C519.36539842 690.8394181 522.92500131 690.83557434 526.48506313 690.85381696 C530.32207542 690.87329791 534.15834706 690.85409225 537.99535275 690.8311882 C539.09757352 690.84300477 540.19979429 690.85482134 541.33541569 690.86699599 C550.14687368 690.76087426 557.34901999 688.3740918 563.6484375 682.015625 C568.08419042 676.16447514 569.75945093 669.90866214 568.7734375 662.640625 C566.65282698 653.5577691 560.96113018 647.68271909 554.4140625 641.36328125 C552.51061417 639.49695691 550.75454053 637.60211667 549.0234375 635.578125 C545.57186375 631.55531177 541.96109706 627.69371906 538.3359375 623.828125 C533.63908059 618.81679038 528.9886614 613.77248352 524.41015625 608.65234375 C520.51496667 604.31436175 516.5625002 600.02859926 512.61816406 595.73535156 C510.31385198 593.22635388 508.01252659 590.71462032 505.7109375 588.203125 C504.79428558 587.20311148 503.8776189 586.20311149 502.9609375 585.203125 C501.12760417 583.203125 499.29427083 581.203125 497.4609375 579.203125 C497.00702637 578.70796387 496.55311523 578.21280273 496.08544922 577.70263672 C495.17035117 576.70431839 494.25531195 575.70594614 493.34033203 574.70751953 C491.02514898 572.1813408 488.7088974 569.65615668 486.390625 567.1328125 C482.16326999 562.52962735 477.94567667 557.91898724 473.7734375 553.265625 C469.31449835 548.29800117 464.78655419 543.39629248 460.25390625 538.49609375 C456.01303017 533.9104529 451.79638901 529.30267583 447.57861328 524.69580078 C446.18514598 523.17497624 444.79005999 521.65565176 443.39453125 520.13671875 C439.16570274 515.53238552 434.94690664 510.92035905 430.7734375 506.265625 C426.31449835 501.29800117 421.78655419 496.39629248 417.25390625 491.49609375 C413.01303017 486.9104529 408.79638901 482.30267583 404.57861328 477.69580078 C403.18514598 476.17497624 401.79005999 474.65565176 400.39453125 473.13671875 C396.16570274 468.53238552 391.94690664 463.92035905 387.7734375 459.265625 C383.31449835 454.29800117 378.78655419 449.39629248 374.25390625 444.49609375 C370.01022318 439.90741771 365.79053209 435.29680897 361.56982422 430.68701172 C359.74314333 428.69229982 357.91544045 426.69852593 356.08764648 424.70483398 C355.17170528 423.70572876 354.25585205 422.70654289 353.34008789 421.70727539 C351.02500122 419.18116426 348.70881962 416.65607202 346.390625 414.1328125 C342.16326999 409.52962735 337.94567667 404.91898724 333.7734375 400.265625 C329.82308736 395.86461103 325.8216987 391.51317499 321.80419922 387.17358398 C318.79179593 383.91917247 315.79313092 380.65305327 312.80834961 377.37329102 C311.42965643 375.86233879 310.04429962 374.35782538 308.65625 372.85546875 C307.22033579 371.29798352 305.79389525 369.73149138 304.390625 368.14453125 C294.97331561 357.93107251 282.7067912 353.71912699 269.15177127 353.11069743 C267.09531332 353.07533664 265.04102089 353.06851743 262.98427105 353.07449055 C262.20420646 353.07273751 261.42414187 353.07098447 260.62043896 353.06917831 C258.02092291 353.06454678 255.42146349 353.06697642 252.82194519 353.06941223 C250.93357098 353.06754283 249.04519715 353.06524161 247.15682393 353.06254691 C241.97840022 353.05643858 236.79999267 353.05656136 231.62156618 353.05774128 C226.03248304 353.05794553 220.44340507 353.05242425 214.85432434 353.04768372 C203.90866823 353.03938211 192.9630175 353.0366291 182.0173585 353.03607134 C173.11988671 353.03559598 164.22241669 353.03354027 155.32494545 353.03037071 C134.19867939 353.02299812 113.07241441 353.01684574 91.94614697 353.01736927 C90.93326711 353.01739264 90.93326711 353.01739264 89.89992504 353.01741648 C86.47763846 353.01749958 83.05535189 353.01759862 79.63306531 353.01770119 C78.61358889 353.0177311 78.61358889 353.0177311 77.573517 353.01776163 C76.19909822 353.01780206 74.82467944 353.01784386 73.45026066 353.01788702 C52.06701268 353.01849976 30.68378056 353.01099253 9.30053711 352.99731445 C-14.73595716 352.98194544 -38.77243952 352.97336137 -62.80894011 352.97427768 C-75.53118624 352.97460963 -88.25341448 352.97186329 -100.97565651 352.96109962 C-111.80658866 352.95199474 -122.63749481 352.94981933 -133.46842913 352.95660905 C-138.99289842 352.95987417 -144.51731783 352.95993111 -150.04178238 352.9512558 C-155.10298841 352.94338977 -160.16410501 352.94482334 -165.22530886 352.95353993 C-167.05229414 352.95507467 -168.87928611 352.95325975 -170.70626352 352.94767985 C-187.96359528 352.89848075 -201.95238672 354.02382404 -215.7890625 365.203125 Z " fill="#FFFFFF" transform="translate(667.7890625,-0.203125)"/>
</svg>
