<svg width="220" height="122" viewBox="0 0 734 512" fill="none" xmlns="http://www.w3.org/2000/svg">
<g clip-path="url(#clip0_904_87993)">
<path d="M111.629 485.532V510.021H0V490.67L70.9506 403.729H1.4528V379.24H109.681V398.581L38.4939 485.51H111.629V485.532ZM268.865 445.371C268.865 447.493 268.704 450.508 268.381 454.426H166.921C168.697 464.058 173.303 471.732 180.718 477.446C188.305 482.997 197.667 485.772 208.805 485.772C223.01 485.772 234.708 481.037 243.92 471.568L260.138 490.419C254.327 497.439 246.987 502.74 238.109 506.331C229.23 509.922 219.223 511.718 208.084 511.718C193.88 511.718 181.375 508.867 170.548 503.142C159.733 497.428 151.339 489.516 145.366 479.394C139.555 469.108 136.65 457.517 136.65 444.619C136.65 431.886 139.469 420.458 145.13 410.336C150.941 400.05 158.926 392.05 169.106 386.337C179.275 380.623 190.737 377.76 203.489 377.76C216.08 377.76 227.294 380.612 237.141 386.337C247.148 391.887 254.896 399.811 260.385 410.086C266.046 420.229 268.865 431.984 268.865 445.371ZM203.489 402.27C193.804 402.27 185.571 405.209 178.792 411.086C172.173 416.8 168.138 424.474 166.685 434.106H240.046C238.754 424.637 234.794 416.964 228.187 411.086C221.579 405.199 213.336 402.27 203.489 402.27ZM429.179 445.371C429.179 447.493 429.018 450.508 428.695 454.426H327.235C329.011 464.058 333.617 471.732 341.043 477.446C348.63 482.997 357.992 485.772 369.13 485.772C383.335 485.772 395.034 481.037 404.234 471.568L420.451 490.419C414.64 497.439 407.301 502.74 398.423 506.331C389.544 509.922 379.537 511.718 368.398 511.718C354.193 511.718 341.688 508.867 330.862 503.142C320.047 497.428 311.653 489.516 305.68 479.394C299.869 469.108 296.964 457.517 296.964 444.619C296.964 431.886 299.783 420.458 305.444 410.336C311.255 400.05 319.251 392.05 329.42 386.337C339.59 380.623 351.05 377.76 363.804 377.76C376.394 377.76 387.608 380.612 397.454 386.337C407.463 391.887 415.211 399.811 420.7 410.086C426.349 420.229 429.179 431.984 429.179 445.371ZM363.804 402.27C354.118 402.27 345.885 405.209 339.106 411.086C332.487 416.8 328.452 424.474 326.999 434.106H400.371C399.08 424.637 395.119 416.964 388.5 411.086C381.882 405.199 373.65 402.27 363.804 402.27ZM586.641 379.252L531.187 510.021H499.958L444.515 379.252H475.992L516.186 476.226L557.597 379.252H586.641ZM733.246 445.371C733.246 447.493 733.084 450.508 732.761 454.426H631.313C633.088 464.058 637.683 471.732 645.109 477.446C652.695 482.997 662.058 485.772 673.197 485.772C687.402 485.772 699.11 481.037 708.3 471.568L724.529 490.419C718.717 497.439 711.368 502.74 702.489 506.331C693.611 509.922 683.602 511.718 672.465 511.718C658.259 511.718 645.743 508.867 634.929 503.142C624.113 497.428 615.719 489.516 609.746 479.394C603.935 469.108 601.029 457.517 601.029 444.619C601.029 431.886 603.85 420.458 609.51 410.336C615.321 400.05 623.307 392.05 633.476 386.337C643.645 380.623 655.106 377.76 667.859 377.76C680.45 377.76 691.663 380.612 701.52 386.337C711.529 391.887 719.277 399.811 724.765 410.086C730.416 420.229 733.246 431.984 733.246 445.371ZM667.869 402.27C658.184 402.27 649.952 405.209 643.171 411.086C636.553 416.8 632.517 424.474 631.065 434.106H704.437C703.146 424.637 699.186 416.964 692.567 411.086C685.949 405.199 677.716 402.27 667.869 402.27Z" fill="#080E12"/>
<path d="M344.271 60.4489C344.271 93.6665 317.647 120.593 284.803 120.593C251.958 120.593 225.324 93.6665 225.324 60.4489C225.324 27.2315 251.948 0.30481 284.803 0.30481C317.636 0.30481 344.271 27.2315 344.271 60.4489Z" fill="#080E12"/>
<path d="M453.315 120.386C483.834 117.833 507.813 91.9739 507.813 60.4489C507.813 27.2315 481.19 0.30481 448.345 0.30481C415.502 0.30481 388.877 27.2315 388.877 60.4489C388.877 60.4489 383.712 103.081 359.132 128.114C336.667 150.994 285.559 164.136 276.935 166.228C247.8 170.12 225.324 195.33 225.324 225.851C225.324 259.068 251.959 285.995 284.803 285.995C297.315 285.995 308.924 282.087 318.503 275.412C352.567 257.068 382.939 260.137 416.955 276.943C426.066 282.681 436.823 285.995 448.345 285.995C481.19 285.995 507.813 259.068 507.813 225.851C507.813 192.633 481.19 165.706 448.345 165.706C424.566 165.706 404.048 179.821 394.533 200.218C389.893 206.699 381.219 215.674 368.753 215.674C357.773 215.674 350.91 213.475 347.008 211.552C351.937 200.12 363.493 176.466 381.442 158.186C401.045 138.221 438.822 124.944 453.315 120.386Z" fill="url(#paint0_linear_904_87993)"/>
</g>
<defs>
<linearGradient id="paint0_linear_904_87993" x1="366.967" y1="232.053" x2="442.519" y2="4.57566e-05" gradientUnits="userSpaceOnUse">
<stop stop-color="#088DB2"/>
<stop offset="1" stop-color="#32B8B2"/>
</linearGradient>
<clipPath id="clip0_904_87993">
<rect width="733.597" height="512" fill="white"/>
</clipPath>
</defs>
</svg>
