<svg width="1049" height="318" viewBox="0 0 1049 318" fill="none" xmlns="http://www.w3.org/2000/svg">
<path d="M158.704 1.85853e-05C124.378 -0.0167066 90.991 11.2554 63.6461 32.0937C36.3011 52.932 16.5026 82.1897 7.27675 115.395C-1.94908 148.6 -0.094709 183.926 12.5565 215.973C25.2076 248.02 47.9596 275.025 77.3347 292.86C83.3128 296.504 90.1717 298.43 97.1646 298.429H97.6769C102.786 298.457 107.85 297.467 112.576 295.517C117.301 293.566 121.595 290.694 125.208 287.065C128.82 283.437 131.681 279.125 133.623 274.379C135.565 269.632 136.551 264.547 136.523 259.415V187.532C136.515 187.133 136.354 186.753 136.073 186.471C135.792 186.189 135.413 186.027 135.016 186.019H111.389C108.417 186.129 105.454 185.637 102.677 184.571C99.8989 183.504 97.3637 181.887 95.2226 179.814C93.0815 177.742 91.3785 175.257 90.2152 172.509C89.052 169.76 88.4524 166.805 88.4524 163.818C88.4524 160.832 89.052 157.876 90.2152 155.128C91.3785 152.379 93.0815 149.895 95.2226 147.822C97.3637 145.75 99.8989 144.132 102.677 143.066C105.454 142 108.417 141.508 111.389 141.618H205.868C208.839 141.508 211.802 142 214.58 143.066C217.358 144.132 219.893 145.75 222.034 147.822C224.175 149.895 225.878 152.379 227.041 155.128C228.205 157.876 228.804 160.832 228.804 163.818C228.804 166.805 228.205 169.76 227.041 172.509C225.878 175.257 224.175 177.742 222.034 179.814C219.893 181.887 217.358 183.504 214.58 184.571C211.802 185.637 208.839 186.129 205.868 186.019H182.301C181.903 186.027 181.525 186.189 181.244 186.471C180.963 186.753 180.802 187.133 180.794 187.532V259.415C180.865 269.767 184.995 279.674 192.289 286.988C199.583 294.302 209.453 298.434 219.761 298.49H220.273C227.277 298.485 234.143 296.526 240.103 292.83C269.434 274.977 292.144 247.975 304.766 215.946C317.388 183.918 319.229 148.621 310.008 115.443C300.787 82.2657 281.01 53.0294 253.697 32.196C226.383 11.3627 193.032 0.0766428 158.734 0.060611L158.704 1.85853e-05ZM47.198 189.046C42.2244 189.051 37.3608 187.575 33.2229 184.804C29.085 182.033 25.8589 178.091 23.9528 173.477C22.0467 168.863 21.5465 163.785 22.5153 158.886C23.4842 153.987 25.8786 149.486 29.3955 145.954C32.9124 142.422 37.3935 140.018 42.2718 139.045C47.1501 138.072 52.2062 138.574 56.8001 140.488C61.394 142.402 65.3191 145.643 68.0786 149.798C70.838 153.954 72.3078 158.838 72.3018 163.833C72.2861 170.494 69.6527 176.88 64.9743 181.601C60.2959 186.322 53.9506 188.998 47.3185 189.046H47.198ZM158.704 113.924C150.99 113.93 143.447 111.638 137.03 107.338C130.613 103.038 125.61 96.9233 122.654 89.7674C119.698 82.6114 118.921 74.7357 120.422 67.1365C121.924 59.5372 125.635 52.5559 131.088 47.0755C136.54 41.5952 143.489 37.8621 151.055 36.3485C158.62 34.8348 166.462 35.6085 173.59 38.5719C180.717 41.5353 186.81 46.5553 191.096 52.9966C195.382 59.4379 197.67 67.0111 197.67 74.7585C197.607 85.1153 193.48 95.0296 186.186 102.35C178.891 109.671 169.016 113.808 158.704 113.863V113.924ZM269.757 189.046C264.785 189.046 259.924 187.564 255.79 184.789C251.657 182.014 248.435 178.07 246.534 173.456C244.632 168.842 244.136 163.765 245.108 158.868C246.081 153.97 248.477 149.473 251.996 145.944C255.514 142.415 259.995 140.013 264.872 139.042C269.75 138.072 274.804 138.576 279.396 140.491C283.989 142.406 287.912 145.646 290.67 149.801C293.428 153.956 294.897 158.84 294.891 163.833C294.875 170.52 292.221 176.929 287.51 181.654C282.799 186.38 276.416 189.038 269.757 189.046Z" fill="url(#paint0_radial_311:71)"/>
<path d="M437.347 223C429.527 223 422.78 221.468 417.107 218.405C411.434 215.342 407.14 210.9 404.074 205.08C401.007 199.26 399.474 192.061 399.474 183.637V130.796H380V106.597H399.32V77H429.374V106.597H460.347V130.796H429.374V179.961C429.374 185.322 430.447 189.611 432.747 192.521C435.047 195.431 438.574 196.962 443.327 196.962C445.781 196.962 448.387 196.656 451.147 195.89C453.907 195.125 456.667 194.206 459.121 193.133L464.488 215.648C460.807 217.792 456.667 219.63 452.067 221.009C447.467 222.234 442.561 223 437.347 223Z" fill="white"/>
<path d="M533.642 223C525.208 223 517.388 221.469 510.335 218.559C503.281 215.648 497.148 211.513 491.935 206.152C486.721 200.792 482.734 194.512 479.974 187.007C477.061 179.655 475.681 171.538 475.681 162.961C475.681 154.537 477.061 146.725 479.974 139.374C482.888 132.022 486.875 125.742 491.935 120.382C496.995 115.021 502.975 110.886 509.875 107.822C516.775 104.759 524.135 103.381 532.262 103.381C540.542 103.381 548.055 104.759 554.955 107.669C561.702 110.579 567.529 114.561 572.435 119.922C577.342 125.283 581.022 131.562 583.629 138.761C586.236 146.113 587.616 154.23 587.616 163.267V170.619H506.348C507.575 179.043 510.641 185.629 515.548 190.377C520.455 195.125 526.588 197.575 533.948 197.575C539.162 197.575 543.762 196.35 548.055 193.899C552.349 191.449 555.722 187.926 558.482 183.331L585.316 191.908C582.709 198.341 578.875 203.855 573.662 208.45C568.449 213.045 562.469 216.567 555.569 219.018C548.668 221.775 541.462 223 533.642 223ZM532.108 126.508C525.515 126.508 519.995 128.652 515.548 132.941C511.101 137.229 508.035 143.05 506.655 150.555H556.642C555.569 143.05 552.809 137.229 548.362 132.941C544.068 128.652 538.548 126.508 532.108 126.508Z" fill="white"/>
<path d="M606.168 219.784V106.597H633.922L634.995 123.751C637.908 117.778 641.742 113.183 646.648 109.966C651.555 106.75 657.229 105.218 663.822 105.218C665.815 105.218 667.809 105.372 669.802 105.678C671.795 105.984 673.635 106.444 675.169 107.056L671.949 136.617C670.415 136.004 668.729 135.698 667.195 135.391C665.509 135.238 663.822 135.085 662.135 135.085C653.855 135.085 647.415 137.689 642.968 142.743C638.522 147.797 636.375 154.996 636.375 164.339V219.784H606.168Z" fill="white"/>
<path d="M691.423 219.784V106.597H719.176L720.096 121.147C723.316 115.787 727.916 111.345 733.743 108.129C739.57 104.912 746.163 103.381 753.523 103.381C761.803 103.381 769.01 105.372 775.297 109.201C781.583 113.183 786.337 118.697 789.71 126.049C793.084 133.4 794.924 141.977 794.924 151.78V219.784H764.87V155.609C764.87 147.798 763.03 141.518 759.503 137.076C755.977 132.635 750.917 130.337 744.63 130.337C740.03 130.337 736.043 131.409 732.67 133.4C729.296 135.545 726.536 138.302 724.543 142.131C722.55 145.807 721.476 150.095 721.476 154.843V219.784H691.423Z" fill="white"/>
<path d="M873.432 223C864.998 223 857.178 221.469 849.971 218.559C842.765 215.495 836.631 211.36 831.265 205.999C825.898 200.639 821.911 194.359 818.998 187.007C816.084 179.655 814.551 171.844 814.551 163.267C814.551 154.69 816.084 146.725 818.998 139.527C822.064 132.328 826.204 126.049 831.571 120.535C836.938 115.174 843.225 110.886 850.431 107.822C857.638 104.759 865.612 103.381 874.198 103.381C882.632 103.381 890.452 104.912 897.659 107.822C904.865 110.886 910.999 115.021 916.365 120.382C921.732 125.742 925.719 132.022 928.632 139.221C931.545 146.419 933.079 154.384 933.079 162.961C933.079 171.538 931.545 179.502 928.632 186.701C925.565 194.053 921.425 200.332 916.059 205.846C910.692 211.207 904.405 215.495 897.198 218.559C889.838 221.469 882.018 223 873.432 223ZM873.738 196.044C879.105 196.044 884.012 194.665 888.305 191.755C892.598 188.845 895.972 185.016 898.425 180.115C900.879 175.214 902.105 169.547 902.105 163.267C902.105 156.987 900.879 151.32 898.425 146.419C895.972 141.518 892.598 137.536 888.305 134.779C884.012 131.869 879.105 130.49 873.738 130.49C868.372 130.49 863.465 131.869 859.171 134.779C854.878 137.689 851.505 141.518 849.051 146.419C846.598 151.32 845.371 156.987 845.371 163.267C845.371 169.547 846.598 175.214 849.051 180.115C851.505 185.016 854.878 188.998 859.171 191.755C863.465 194.512 868.372 196.044 873.738 196.044Z" fill="white"/>
<path d="M987.819 223C981.992 223 976.625 222.081 971.718 220.396C966.812 218.712 962.672 216.261 958.992 213.045C955.312 209.828 952.552 206.152 950.558 201.864C948.565 197.575 947.492 192.827 947.492 187.773C947.492 180.574 949.485 174.295 953.318 168.934C957.152 163.573 962.672 159.285 969.572 156.221C976.625 153.158 984.752 151.627 994.105 151.627C998.859 151.627 1003.31 152.086 1007.45 152.852C1011.74 153.771 1015.73 154.996 1019.71 156.528V149.942C1019.71 143.509 1017.87 138.301 1014.19 134.319C1010.51 130.337 1005.61 128.346 999.319 128.346C994.565 128.346 990.272 129.571 986.439 131.869C982.605 134.166 979.845 137.536 978.312 141.824L951.478 136.464C953.012 129.878 956.232 124.211 960.832 119.156C965.432 114.255 971.105 110.426 977.852 107.669C984.599 104.912 991.805 103.534 999.779 103.534C1007.14 103.534 1013.73 104.606 1019.71 106.903C1025.69 109.201 1030.91 112.417 1035.2 116.706C1039.49 120.994 1042.87 126.049 1045.32 131.869C1047.62 137.689 1048.85 144.122 1048.85 151.32V219.937H1022.01L1021.09 206.612C1018.03 211.513 1013.73 215.495 1008.06 218.558C1002.39 221.468 995.639 223 987.819 223ZM977.085 186.088C977.085 190.07 978.772 193.44 981.992 195.89C985.212 198.494 989.659 199.719 995.025 199.719C999.779 199.719 1003.92 198.647 1007.75 196.656C1011.43 194.665 1014.35 191.908 1016.49 188.385C1018.64 184.863 1019.71 181.034 1019.71 176.745V175.673C1016.49 174.448 1013.27 173.376 1009.59 172.61C1006.07 171.844 1002.39 171.384 998.859 171.384C992.112 171.384 986.745 172.763 982.912 175.367C978.925 178.124 977.085 181.646 977.085 186.088Z" fill="white"/>
<defs>
<radialGradient id="paint0_radial_311:71" cx="0" cy="0" r="1" gradientUnits="userSpaceOnUse" gradientTransform="translate(18.9611 291.96) rotate(-40.3865) scale(321.033 318.841)">
<stop offset="0.0767536" stop-color="#004FFF"/>
<stop offset="0.477579" stop-color="#CB06ED"/>
<stop offset="0.778711" stop-color="#FF0062"/>
<stop offset="1" stop-color="#FF8500"/>
</radialGradient>
</defs>
</svg>
